<?xml version="1.0" encoding="iso-8859-1"?>
<!-- Generator: Adobe Illustrator 18.0.0, SVG Export Plug-In . SVG Version: 6.00 Build 0)  -->
<!DOCTYPE svg PUBLIC "-//W3C//DTD SVG 1.1//EN" "http://www.w3.org/Graphics/SVG/1.1/DTD/svg11.dtd">
<svg xmlns="http://www.w3.org/2000/svg" xmlns:xlink="http://www.w3.org/1999/xlink" version="1.1" id="Capa_1" x="0px" y="0px" viewBox="0 0 512 512"  xml:space="preserve" width="512px" height="512px"><g><path fill="var(--ci-primary-color, currentColor)" d="M153.07,410a108.185,108.185,0,0,0,105.745,86h6.815a108.185,108.185,0,0,0,105.745-86Z" class="ci-primary" style="color: #B2B2B2;"></path><path fill="var(--ci-primary-color, currentColor)" d="M262.222,16A175.987,175.987,0,0,0,150.815,328.231V374H373.63V328.231A175.988,175.988,0,0,0,262.222,16ZM377.937,259.617c-1.365,2.329-2.807,4.609-4.307,6.847a135.317,135.317,0,0,1-32,33.469q-1.425,1.05-2.876,2.065H185.691q-1.452-1.014-2.876-2.065a135.335,135.335,0,0,1-32-33.468q-2.252-3.357-4.308-6.848a134,134,0,1,1,231.43,0Z" class="ci-primary" style="color: #CCE5FF;"></path></g></svg>
